# xmcd
#
# Track frame offsets:
#	150
#	15441
#	33319
#	53701
#	73015
#	95243
#	108838
#	127661
#	145263
#	163725
#	182679
#
# Disc length: 2702 seconds
#
# Revision: 1
# Processed by: cddbd v1.5.2PL0 Copyright (c) Steve Scherf et al.
# Submitted via: audiograbber 1.83.01
#
DISCID=8c0a8c0b
DTITLE=Wendy Webb - This Is The Moment
DYEAR=2015
DGENRE=
TTITLE0=Venus Is Rocking In The Cradle Of The Moon
TTITLE1=This Is The Moment
TTITLE2=Western Channel Of The Sky
TTITLE3=My Beating Heart
TTITLE4=Your My Friend
TTITLE5=Homespun
TTITLE6=All The Boys On Saturday
TTITLE7=Big Blue Sky
TTITLE8=I Will Remember
TTITLE9=Florida
TTITLE10=Long Day In The Sun
EXTD=
EXTT0=
EXTT1=
EXTT2=
EXTT3=
EXTT4=
EXTT5=
EXTT6=
EXTT7=
EXTT8=
EXTT9=
EXTT10=
PLAYORDER=
